<?xml version="1.0" encoding="UTF-8" standalone="no"?>
<!DOCTYPE svg PUBLIC "-//W3C//DTD SVG 1.1//EN" "http://www.w3.org/Graphics/SVG/1.1/DTD/svg11.dtd">
<!-- 由 Microsoft Visio, SVG Export 生成 3-nvm.svg 页-1 -->
<svg xmlns="http://www.w3.org/2000/svg" xmlns:xlink="http://www.w3.org/1999/xlink" xmlns:ev="http://www.w3.org/2001/xml-events"
		width="4.17749in" height="3.23967in" viewBox="0 0 300.779 233.256" xml:space="preserve" color-interpolation-filters="sRGB"
		class="st42">
	<style type="text/css">
	<![CDATA[
		.st1 {marker-end:url(#mrkr5-6);stroke:#000000;stroke-linecap:round;stroke-linejoin:round;stroke-width:1.5}
		.st2 {fill:#000000;fill-opacity:1;stroke:#000000;stroke-opacity:1;stroke-width:0.37313432835821}
		.st3 {fill:#000000;stroke:#000000;stroke-linecap:round;stroke-linejoin:round;stroke-width:1.5}
		.st4 {fill:none;stroke:none;stroke-linecap:round;stroke-linejoin:round;stroke-width:1.5}
		.st5 {fill:#000000;font-family:Arial;font-size:1.00001em;font-weight:bold}
		.st6 {marker-start:url(#mrkr5-57);stroke:#0070c0;stroke-dasharray:0.75,1.5;stroke-linecap:round;stroke-linejoin:round;stroke-width:0.75}
		.st7 {fill:#0070c0;fill-opacity:1;stroke:#0070c0;stroke-opacity:1;stroke-width:0.34246575342466}
		.st8 {marker-start:url(#mrkr5-63);stroke:#9dbb61;stroke-linecap:round;stroke-linejoin:round;stroke-width:2.25}
		.st9 {fill:#9dbb61;fill-opacity:1;stroke:#9dbb61;stroke-opacity:1;stroke-width:0.60975609756098}
		.st10 {marker-start:url(#mrkr5-69);stroke:#c00000;stroke-linecap:round;stroke-linejoin:round;stroke-width:2.25}
		.st11 {fill:#c00000;fill-opacity:1;stroke:#c00000;stroke-opacity:1;stroke-width:0.60975609756098}
		.st12 {marker-end:url(#mrkr5-75);stroke:#0070c0;stroke-linecap:round;stroke-linejoin:round;stroke-width:2.25}
		.st13 {fill:#0070c0;fill-opacity:1;stroke:#0070c0;stroke-opacity:1;stroke-width:0.60975609756098}
		.st14 {marker-end:url(#mrkr5-86);stroke:#c00000;stroke-dasharray:0.75,1.5;stroke-linecap:round;stroke-linejoin:round;stroke-width:0.75}
		.st15 {fill:#c00000;fill-opacity:1;stroke:#c00000;stroke-opacity:1;stroke-width:0.34246575342466}
		.st16 {marker-start:url(#mrkr5-215);stroke:#c00000;stroke-dasharray:0.75,1.5;stroke-linecap:round;stroke-linejoin:round;stroke-width:0.75}
		.st17 {marker-start:url(#mrkr5-226);stroke:#9dbb61;stroke-dasharray:0.75,1.5;stroke-linecap:round;stroke-linejoin:round;stroke-width:0.75}
		.st18 {fill:#9dbb61;fill-opacity:1;stroke:#9dbb61;stroke-opacity:1;stroke-width:0.34246575342466}
		.st19 {marker-end:url(#mrkr5-362);stroke:#9dbb61;stroke-linecap:round;stroke-linejoin:round;stroke-width:2.25}
		.st20 {marker-end:url(#mrkr5-378);stroke:#9dbb61;stroke-dasharray:0.75,1.5;stroke-linecap:round;stroke-linejoin:round;stroke-width:0.75}
		.st21 {marker-start:url(#mrkr5-569);stroke:#0070c0;stroke-linecap:round;stroke-linejoin:round;stroke-width:2.25}
		.st22 {marker-end:url(#mrkr5-588);marker-start:url(#mrkr5-586);stroke:#9dbb61;stroke-linecap:round;stroke-linejoin:round;stroke-width:1.5}
		.st23 {fill:#9dbb61;fill-opacity:1;stroke:#9dbb61;stroke-opacity:1;stroke-width:0.37313432835821}
		.st24 {marker-start:url(#mrkr5-594);stroke:#c00000;stroke-linecap:round;stroke-linejoin:round;stroke-width:1.5}
		.st25 {fill:#c00000;fill-opacity:1;stroke:#c00000;stroke-opacity:1;stroke-width:0.37313432835821}
		.st26 {marker-end:url(#mrkr5-600);stroke:#0070c0;stroke-linecap:round;stroke-linejoin:round;stroke-width:1.5}
		.st27 {fill:#0070c0;fill-opacity:1;stroke:#0070c0;stroke-opacity:1;stroke-width:0.37313432835821}
		.st28 {marker-end:url(#mrkr5-610);stroke:#0070c0;stroke-linecap:round;stroke-linejoin:round;stroke-width:1.5}
		.st29 {fill:#0070c0;fill-opacity:1;stroke:#0070c0;stroke-opacity:1;stroke-width:0.51020408163265}
		.st30 {marker-end:url(#mrkr5-616);stroke:#9dbb61;stroke-linecap:round;stroke-linejoin:round;stroke-width:1.5}
		.st31 {fill:#9dbb61;fill-opacity:1;stroke:#9dbb61;stroke-opacity:1;stroke-width:0.51020408163265}
		.st32 {marker-end:url(#mrkr5-622);stroke:#c00000;stroke-linecap:round;stroke-linejoin:round;stroke-width:1.5}
		.st33 {fill:#c00000;fill-opacity:1;stroke:#c00000;stroke-opacity:1;stroke-width:0.51020408163265}
		.st34 {fill:#c00000;font-family:Arial;font-size:1.00001em;font-weight:bold}
		.st35 {fill:#9dbb61;font-size:1em}
		.st36 {fill:#0070c0;font-size:1em}
		.st37 {fill:#000000;font-size:1em}
		.st38 {marker-end:url(#mrkr5-635);stroke:#000000;stroke-dasharray:0.75,1.5;stroke-linecap:round;stroke-linejoin:round;stroke-width:0.75}
		.st39 {fill:#000000;fill-opacity:1;stroke:#000000;stroke-opacity:1;stroke-width:0.34246575342466}
		.st40 {marker-end:url(#mrkr5-641);stroke:#000000;stroke-linecap:round;stroke-linejoin:round;stroke-width:2.25}
		.st41 {fill:#000000;fill-opacity:1;stroke:#000000;stroke-opacity:1;stroke-width:0.60975609756098}
		.st42 {fill:none;fill-rule:evenodd;font-size:12px;overflow:visible;stroke-linecap:square;stroke-miterlimit:3}
	]]>
	</style>

	<defs id="Markers">
		<g id="lend5">
			<path d="M 2 1 L 0 0 L 1.98117 -0.993387 C 1.67173 -0.364515 1.67301 0.372641 1.98465 1.00043 " style="stroke:none"/>
		</g>
		<marker id="mrkr5-6" class="st2" refX="-4.69" orient="auto" markerUnits="strokeWidth" overflow="visible">
			<use xlink:href="#lend5" transform="scale(-2.68,-2.68) "/>
		</marker>
		<marker id="mrkr5-57" class="st7" refX="4.63" orient="auto" markerUnits="strokeWidth" overflow="visible">
			<use xlink:href="#lend5" transform="scale(2.92) "/>
		</marker>
		<marker id="mrkr5-63" class="st9" refX="2.71" orient="auto" markerUnits="strokeWidth" overflow="visible">
			<use xlink:href="#lend5" transform="scale(1.64) "/>
		</marker>
		<marker id="mrkr5-69" class="st11" refX="2.71" orient="auto" markerUnits="strokeWidth" overflow="visible">
			<use xlink:href="#lend5" transform="scale(1.64) "/>
		</marker>
		<marker id="mrkr5-75" class="st13" refX="-2.87" orient="auto" markerUnits="strokeWidth" overflow="visible">
			<use xlink:href="#lend5" transform="scale(-1.64,-1.64) "/>
		</marker>
		<marker id="mrkr5-86" class="st15" refX="-5.11" orient="auto" markerUnits="strokeWidth" overflow="visible">
			<use xlink:href="#lend5" transform="scale(-2.92,-2.92) "/>
		</marker>
		<marker id="mrkr5-215" class="st15" refX="4.63" orient="auto" markerUnits="strokeWidth" overflow="visible">
			<use xlink:href="#lend5" transform="scale(2.92) "/>
		</marker>
		<marker id="mrkr5-226" class="st18" refX="4.63" orient="auto" markerUnits="strokeWidth" overflow="visible">
			<use xlink:href="#lend5" transform="scale(2.92) "/>
		</marker>
		<marker id="mrkr5-362" class="st9" refX="-2.87" orient="auto" markerUnits="strokeWidth" overflow="visible">
			<use xlink:href="#lend5" transform="scale(-1.64,-1.64) "/>
		</marker>
		<marker id="mrkr5-378" class="st18" refX="-5.11" orient="auto" markerUnits="strokeWidth" overflow="visible">
			<use xlink:href="#lend5" transform="scale(-2.92,-2.92) "/>
		</marker>
		<marker id="mrkr5-569" class="st13" refX="2.71" orient="auto" markerUnits="strokeWidth" overflow="visible">
			<use xlink:href="#lend5" transform="scale(1.64) "/>
		</marker>
		<marker id="mrkr5-586" class="st23" refX="4.45" orient="auto" markerUnits="strokeWidth" overflow="visible">
			<use xlink:href="#lend5" transform="scale(2.68) "/>
		</marker>
		<marker id="mrkr5-588" class="st23" refX="-4.69" orient="auto" markerUnits="strokeWidth" overflow="visible">
			<use xlink:href="#lend5" transform="scale(-2.68,-2.68) "/>
		</marker>
		<marker id="mrkr5-594" class="st25" refX="4.45" orient="auto" markerUnits="strokeWidth" overflow="visible">
			<use xlink:href="#lend5" transform="scale(2.68) "/>
		</marker>
		<marker id="mrkr5-600" class="st27" refX="-4.69" orient="auto" markerUnits="strokeWidth" overflow="visible">
			<use xlink:href="#lend5" transform="scale(-2.68,-2.68) "/>
		</marker>
		<marker id="mrkr5-610" class="st29" refX="-3.43" orient="auto" markerUnits="strokeWidth" overflow="visible">
			<use xlink:href="#lend5" transform="scale(-1.96,-1.96) "/>
		</marker>
		<marker id="mrkr5-616" class="st31" refX="-3.43" orient="auto" markerUnits="strokeWidth" overflow="visible">
			<use xlink:href="#lend5" transform="scale(-1.96,-1.96) "/>
		</marker>
		<marker id="mrkr5-622" class="st33" refX="-3.43" orient="auto" markerUnits="strokeWidth" overflow="visible">
			<use xlink:href="#lend5" transform="scale(-1.96,-1.96) "/>
		</marker>
		<marker id="mrkr5-635" class="st39" refX="-5.11" orient="auto" markerUnits="strokeWidth" overflow="visible">
			<use xlink:href="#lend5" transform="scale(-2.92,-2.92) "/>
		</marker>
		<marker id="mrkr5-641" class="st41" refX="-2.87" orient="auto" markerUnits="strokeWidth" overflow="visible">
			<use xlink:href="#lend5" transform="scale(-1.64,-1.64) "/>
		</marker>
	</defs>
	<g>
		<title>页-1</title>
		<g id="shape2875-1" transform="translate(77.2781,-39.3066)">
			<title>工作表.2875</title>
			<path d="M0 233.26 L197.91 233.26" class="st1"/>
		</g>
		<g id="shape2876-7" transform="translate(132.554,-37.8893)">
			<title>工作表.2876</title>
			<ellipse cx="1.41732" cy="231.839" rx="1.41732" ry="1.41732" class="st3"/>
		</g>
		<g id="shape2877-9" transform="translate(104.207,-37.8893)">
			<title>工作表.2877</title>
			<ellipse cx="1.41732" cy="231.839" rx="1.41732" ry="1.41732" class="st3"/>
		</g>
		<g id="shape2878-11" transform="translate(160.9,-37.8893)">
			<title>工作表.2878</title>
			<ellipse cx="1.41732" cy="231.839" rx="1.41732" ry="1.41732" class="st3"/>
		</g>
		<g id="shape2879-13" transform="translate(-155.978,193.631) rotate(-90)">
			<title>工作表.2879</title>
			<path d="M0 233.26 L177.61 233.26" class="st1"/>
		</g>
		<g id="shape2880-18" transform="translate(-154.561,138.355) rotate(-90)">
			<title>工作表.2880</title>
			<ellipse cx="1.41732" cy="231.839" rx="1.41732" ry="1.41732" class="st3"/>
		</g>
		<g id="shape2881-20" transform="translate(-154.561,166.702) rotate(-90)">
			<title>工作表.2881</title>
			<ellipse cx="1.41732" cy="231.839" rx="1.41732" ry="1.41732" class="st3"/>
		</g>
		<g id="shape2882-22" transform="translate(-154.561,110.009) rotate(-90)">
			<title>工作表.2882</title>
			<ellipse cx="1.41732" cy="231.576" rx="1.41732" ry="1.68005" class="st3"/>
		</g>
		<g id="shape2883-24" transform="translate(237.05,-44.196)">
			<title>工作表.2883</title>
			<desc>PE_Num</desc>
			<rect x="0" y="223.335" width="58.5033" height="9.92126" class="st4"/>
			<text x="4.58" y="231.3" class="st5">PE_Num</text>		</g>
		<g id="shape2884-27" transform="translate(3.66567,-217.181)">
			<title>工作表.2884</title>
			<desc>Array_Size</desc>
			<rect x="0" y="223.335" width="71.1656" height="9.92126" class="st4"/>
			<text x="4.56" y="231.3" class="st5">Array_Size</text>		</g>
		<g id="shape2885-30" transform="translate(-72.1033,60.0156) rotate(-45)">
			<title>工作表.2885</title>
			<desc>(1,1)</desc>
			<rect x="0" y="223.335" width="39.685" height="9.92126" class="st4"/>
			<text x="7.51" y="231.3" class="st5">(1,1)</text>		</g>
		<g id="shape2886-33" transform="translate(-44.0403,60.0156) rotate(-45)">
			<title>工作表.2886</title>
			<desc>(2,2)</desc>
			<rect x="0" y="223.335" width="39.685" height="9.92126" class="st4"/>
			<text x="7.51" y="231.3" class="st5">(2,2)</text>		</g>
		<g id="shape2887-36" transform="translate(-15.9773,60.0156) rotate(-45)">
			<title>工作表.2887</title>
			<desc>(4,4)</desc>
			<rect x="0" y="223.335" width="39.685" height="9.92126" class="st4"/>
			<text x="7.51" y="231.3" class="st5">(4,4)</text>		</g>
		<g id="shape2888-39" transform="translate(17.5505,-119.704)">
			<title>工作表.2888</title>
			<desc>(128,128)</desc>
			<rect x="0" y="223.335" width="60.6409" height="9.92126" class="st4"/>
			<text x="5.27" y="231.3" class="st5">(128,128)</text>		</g>
		<g id="shape2889-42" transform="translate(31.2151,-91.3578)">
			<title>工作表.2889</title>
			<desc>(64,64)</desc>
			<rect x="0" y="223.335" width="47.0551" height="9.92126" class="st4"/>
			<text x="5.03" y="231.3" class="st5">(64,64)</text>		</g>
		<g id="shape2890-45" transform="translate(31.2151,-63.0113)">
			<title>工作表.2890</title>
			<desc>(32,32)</desc>
			<rect x="0" y="223.335" width="47.0551" height="9.92126" class="st4"/>
			<text x="5.03" y="231.3" class="st5">(32,32)</text>		</g>
		<g id="shape2891-48" transform="translate(-124.797,25.9969) rotate(-90)">
			<title>工作表.2891</title>
			<ellipse cx="2.83465" cy="230.422" rx="2.83465" ry="2.83465" class="st3"/>
		</g>
		<g id="shape2892-50" transform="translate(-96.4506,54.3433) rotate(-90)">
			<title>工作表.2892</title>
			<ellipse cx="2.83465" cy="230.422" rx="2.83465" ry="2.83465" class="st3"/>
		</g>
		<g id="shape2893-52" transform="translate(362.983,28.8315) rotate(90)">
			<title>工作表.2893</title>
			<path d="M3.47 233.26 L3.83 233.26 L17.01 233.26" class="st6"/>
		</g>
		<g id="shape2894-58" transform="translate(367.235,28.8315) rotate(90)">
			<title>工作表.2894</title>
			<path d="M6.1 233.26 L6.46 233.26 L17.01 233.26" class="st8"/>
		</g>
		<g id="shape2895-64" transform="translate(371.487,28.8315) rotate(90)">
			<title>工作表.2895</title>
			<path d="M6.1 233.26 L6.46 233.26 L17.01 233.26" class="st10"/>
		</g>
		<g id="shape2896-70" transform="translate(391.404,28.8315) rotate(90)">
			<title>工作表.2896</title>
			<path d="M0 233.26 L10.55 233.26" class="st12"/>
		</g>
		<g id="shape2897-76" transform="translate(395.656,28.8315) rotate(90)">
			<title>工作表.2897</title>
			<path d="M6.1 233.26 L6.46 233.26 L17.01 233.26" class="st8"/>
		</g>
		<g id="shape2898-81" transform="translate(399.908,28.8315) rotate(90)">
			<title>工作表.2898</title>
			<path d="M0 233.26 L13.18 233.26" class="st14"/>
		</g>
		<g id="shape2899-87" transform="translate(217.31,-38.1503)">
			<title>工作表.2899</title>
			<ellipse cx="1.41732" cy="231.839" rx="1.41732" ry="1.41732" class="st3"/>
		</g>
		<g id="shape2900-89" transform="translate(188.963,-38.1503)">
			<title>工作表.2900</title>
			<ellipse cx="1.41732" cy="231.839" rx="1.41732" ry="1.41732" class="st3"/>
		</g>
		<g id="shape2901-91" transform="translate(245.656,-38.1503)">
			<title>工作表.2901</title>
			<ellipse cx="1.41732" cy="231.839" rx="1.41732" ry="1.41732" class="st3"/>
		</g>
		<g id="shape2902-93" transform="translate(10.9518,59.7545) rotate(-45)">
			<title>工作表.2902</title>
			<desc>(8,8)</desc>
			<rect x="0" y="223.335" width="39.685" height="9.92126" class="st4"/>
			<text x="7.51" y="231.3" class="st5">(8,8)</text>		</g>
		<g id="shape2903-96" transform="translate(32.7497,67.5692) rotate(-45)">
			<title>工作表.2903</title>
			<desc>(16,16)</desc>
			<rect x="0" y="223.335" width="46.9207" height="9.92126" class="st4"/>
			<text x="4.45" y="231.3" class="st5">(16,16)</text>		</g>
		<g id="shape2904-99" transform="translate(60.8126,67.0022) rotate(-45)">
			<title>工作表.2904</title>
			<desc>(32,32)</desc>
			<rect x="0" y="223.335" width="46.0704" height="9.92126" class="st4"/>
			<text x="4.05" y="231.3" class="st5">(32,32)</text>		</g>
		<g id="shape2905-102" transform="translate(-154.419,52.926) rotate(-90)">
			<title>工作表.2905</title>
			<ellipse cx="1.41732" cy="231.839" rx="1.41732" ry="1.41732" class="st3"/>
		</g>
		<g id="shape2906-104" transform="translate(-154.419,81.2724) rotate(-90)">
			<title>工作表.2906</title>
			<ellipse cx="1.41732" cy="231.839" rx="1.41732" ry="1.41732" class="st3"/>
		</g>
		<g id="shape2907-106" transform="translate(-154.419,24.5795) rotate(-90)">
			<title>工作表.2907</title>
			<ellipse cx="1.41732" cy="231.839" rx="1.41732" ry="1.41732" class="st3"/>
		</g>
		<g id="shape2908-108" transform="translate(0.75,-205.133)">
			<title>工作表.2908</title>
			<desc>(1024,1024)</desc>
			<rect x="0" y="223.335" width="77.4414" height="9.92126" class="st4"/>
			<text x="8.72" y="231.3" class="st5">(1024,1024)</text>		</g>
		<g id="shape2909-111" transform="translate(17.1137,-176.787)">
			<title>工作表.2909</title>
			<desc>(512,512)</desc>
			<rect x="0" y="223.335" width="61.0777" height="9.92126" class="st4"/>
			<text x="5.71" y="231.3" class="st5">(512,512)</text>		</g>
		<g id="shape2910-114" transform="translate(17.1137,-148.44)">
			<title>工作表.2910</title>
			<desc>(256,256)</desc>
			<rect x="0" y="223.335" width="61.0777" height="9.92126" class="st4"/>
			<text x="5.71" y="231.3" class="st5">(256,256)</text>		</g>
		<g id="shape2911-117" transform="translate(-96.3392,25.9969) rotate(-90)">
			<title>工作表.2911</title>
			<ellipse cx="2.83465" cy="230.422" rx="2.83465" ry="2.83465" class="st3"/>
		</g>
		<g id="shape2912-119" transform="translate(-68.1041,82.6898) rotate(-90)">
			<title>工作表.2912</title>
			<ellipse cx="2.83465" cy="230.422" rx="2.83465" ry="2.83465" class="st3"/>
		</g>
		<g id="shape2913-121" transform="translate(-68.1041,54.3433) rotate(-90)">
			<title>工作表.2913</title>
			<ellipse cx="2.83465" cy="230.422" rx="2.83465" ry="2.83465" class="st3"/>
		</g>
		<g id="shape2914-123" transform="translate(-68.1041,25.9969) rotate(-90)">
			<title>工作表.2914</title>
			<ellipse cx="2.83465" cy="230.422" rx="2.83465" ry="2.83465" class="st3"/>
		</g>
		<g id="shape2915-125" transform="translate(-40.0411,111.904) rotate(-90)">
			<title>工作表.2915</title>
			<ellipse cx="2.83465" cy="230.422" rx="2.83465" ry="2.83465" class="st3"/>
		</g>
		<g id="shape2916-127" transform="translate(-40.0411,82.6898) rotate(-90)">
			<title>工作表.2916</title>
			<ellipse cx="2.83465" cy="230.422" rx="2.83465" ry="2.83465" class="st3"/>
		</g>
		<g id="shape2917-129" transform="translate(-39.7576,54.3433) rotate(-90)">
			<title>工作表.2917</title>
			<ellipse cx="2.83465" cy="230.422" rx="2.83465" ry="2.83465" class="st3"/>
		</g>
		<g id="shape2918-131" transform="translate(-39.7576,25.9969) rotate(-90)">
			<title>工作表.2918</title>
			<ellipse cx="2.83465" cy="230.422" rx="2.83465" ry="2.83465" class="st3"/>
		</g>
		<g id="shape2919-133" transform="translate(-11.6947,139.772) rotate(-90)">
			<title>工作表.2919</title>
			<ellipse cx="2.83465" cy="230.422" rx="2.83465" ry="2.83465" class="st3"/>
		</g>
		<g id="shape2920-135" transform="translate(-11.6947,111.904) rotate(-90)">
			<title>工作表.2920</title>
			<ellipse cx="2.83465" cy="230.422" rx="2.83465" ry="2.83465" class="st3"/>
		</g>
		<g id="shape2921-137" transform="translate(-11.6947,82.6898) rotate(-90)">
			<title>工作表.2921</title>
			<ellipse cx="2.83465" cy="230.422" rx="2.83465" ry="2.83465" class="st3"/>
		</g>
		<g id="shape2922-139" transform="translate(-11.6947,54.3433) rotate(-90)">
			<title>工作表.2922</title>
			<ellipse cx="2.83465" cy="230.422" rx="2.83465" ry="2.83465" class="st3"/>
		</g>
		<g id="shape2923-141" transform="translate(-11.6947,25.9969) rotate(-90)">
			<title>工作表.2923</title>
			<ellipse cx="2.83465" cy="230.422" rx="2.83465" ry="2.83465" class="st3"/>
		</g>
		<g id="shape2924-143" transform="translate(16.6518,168.119) rotate(-90)">
			<title>工作表.2924</title>
			<ellipse cx="2.83465" cy="230.422" rx="2.83465" ry="2.83465" class="st3"/>
		</g>
		<g id="shape2925-145" transform="translate(16.6518,139.772) rotate(-90)">
			<title>工作表.2925</title>
			<ellipse cx="2.83465" cy="230.422" rx="2.83465" ry="2.83465" class="st3"/>
		</g>
		<g id="shape2926-147" transform="translate(16.6518,111.904) rotate(-90)">
			<title>工作表.2926</title>
			<ellipse cx="2.83465" cy="230.422" rx="2.83465" ry="2.83465" class="st3"/>
		</g>
		<g id="shape2927-149" transform="translate(16.6518,82.6898) rotate(-90)">
			<title>工作表.2927</title>
			<ellipse cx="2.83465" cy="230.422" rx="2.83465" ry="2.83465" class="st3"/>
		</g>
		<g id="shape2928-151" transform="translate(16.6518,54.3433) rotate(-90)">
			<title>工作表.2928</title>
			<ellipse cx="2.83465" cy="230.422" rx="2.83465" ry="2.83465" class="st3"/>
		</g>
		<g id="shape2929-153" transform="translate(16.6518,25.9969) rotate(-90)">
			<title>工作表.2929</title>
			<ellipse cx="2.83465" cy="230.422" rx="2.83465" ry="2.83465" class="st3"/>
		</g>
		<g id="shape2930-155" transform="translate(447.888,28.8315) rotate(90)">
			<title>工作表.2930</title>
			<path d="M3.47 233.26 L3.83 233.26 L17.01 233.26" class="st6"/>
		</g>
		<g id="shape2931-160" transform="translate(452.14,28.8315) rotate(90)">
			<title>工作表.2931</title>
			<path d="M6.1 233.26 L6.46 233.26 L17.01 233.26" class="st8"/>
		</g>
		<g id="shape2932-165" transform="translate(456.392,28.8315) rotate(90)">
			<title>工作表.2932</title>
			<path d="M0 233.26 L13.18 233.26" class="st14"/>
		</g>
		<g id="shape2933-170" transform="translate(476.309,28.8315) rotate(90)">
			<title>工作表.2933</title>
			<path d="M3.47 233.26 L3.83 233.26 L17.01 233.26" class="st6"/>
		</g>
		<g id="shape2934-175" transform="translate(480.561,28.8315) rotate(90)">
			<title>工作表.2934</title>
			<path d="M6.1 233.26 L6.46 233.26 L17.01 233.26" class="st8"/>
		</g>
		<g id="shape2935-180" transform="translate(484.813,28.8315) rotate(90)">
			<title>工作表.2935</title>
			<path d="M0 233.26 L13.18 233.26" class="st14"/>
		</g>
		<g id="shape2936-185" transform="translate(419.467,28.8315) rotate(90)">
			<title>工作表.2936</title>
			<path d="M3.47 233.26 L3.83 233.26 L17.01 233.26" class="st6"/>
		</g>
		<g id="shape2937-190" transform="translate(423.719,28.8315) rotate(90)">
			<title>工作表.2937</title>
			<path d="M6.1 233.26 L6.46 233.26 L17.01 233.26" class="st8"/>
		</g>
		<g id="shape2938-195" transform="translate(427.971,28.8315) rotate(90)">
			<title>工作表.2938</title>
			<path d="M0 233.26 L13.18 233.26" class="st14"/>
		</g>
		<g id="shape2939-200" transform="translate(391.406,57.178) rotate(90)">
			<title>工作表.2939</title>
			<path d="M3.47 233.26 L3.83 233.26 L17.01 233.26" class="st6"/>
		</g>
		<g id="shape2940-205" transform="translate(395.658,57.178) rotate(90)">
			<title>工作表.2940</title>
			<path d="M6.1 233.26 L6.46 233.26 L17.01 233.26" class="st8"/>
		</g>
		<g id="shape2941-210" transform="translate(399.91,57.178) rotate(90)">
			<title>工作表.2941</title>
			<path d="M3.47 233.26 L3.83 233.26 L17.01 233.26" class="st16"/>
		</g>
		<g id="shape2942-216" transform="translate(447.891,57.178) rotate(90)">
			<title>工作表.2942</title>
			<path d="M3.47 233.26 L3.83 233.26 L17.01 233.26" class="st6"/>
		</g>
		<g id="shape2943-221" transform="translate(452.143,57.178) rotate(90)">
			<title>工作表.2943</title>
			<path d="M3.47 233.26 L3.83 233.26 L17.01 233.26" class="st17"/>
		</g>
		<g id="shape2944-227" transform="translate(456.395,57.178) rotate(90)">
			<title>工作表.2944</title>
			<path d="M0 233.26 L13.18 233.26" class="st14"/>
		</g>
		<g id="shape2945-232" transform="translate(476.312,57.178) rotate(90)">
			<title>工作表.2945</title>
			<path d="M3.47 233.26 L3.83 233.26 L17.01 233.26" class="st6"/>
		</g>
		<g id="shape2946-237" transform="translate(480.564,57.178) rotate(90)">
			<title>工作表.2946</title>
			<path d="M6.1 233.26 L6.46 233.26 L17.01 233.26" class="st8"/>
		</g>
		<g id="shape2947-242" transform="translate(484.816,57.178) rotate(90)">
			<title>工作表.2947</title>
			<path d="M0 233.26 L13.18 233.26" class="st14"/>
		</g>
		<g id="shape2948-247" transform="translate(419.47,57.178) rotate(90)">
			<title>工作表.2948</title>
			<path d="M3.47 233.26 L3.83 233.26 L17.01 233.26" class="st6"/>
		</g>
		<g id="shape2949-252" transform="translate(423.722,57.178) rotate(90)">
			<title>工作表.2949</title>
			<path d="M6.1 233.26 L6.46 233.26 L17.01 233.26" class="st8"/>
		</g>
		<g id="shape2950-257" transform="translate(427.974,57.178) rotate(90)">
			<title>工作表.2950</title>
			<path d="M6.1 233.26 L6.46 233.26 L17.01 233.26" class="st10"/>
		</g>
		<g id="shape2951-262" transform="translate(447.783,85.8787) rotate(90)">
			<title>工作表.2951</title>
			<path d="M3.47 233.26 L3.83 233.26 L17.01 233.26" class="st6"/>
		</g>
		<g id="shape2952-267" transform="translate(452.035,85.8787) rotate(90)">
			<title>工作表.2952</title>
			<path d="M3.47 233.26 L3.83 233.26 L17.01 233.26" class="st17"/>
		</g>
		<g id="shape2953-272" transform="translate(456.287,85.8787) rotate(90)">
			<title>工作表.2953</title>
			<path d="M3.47 233.26 L3.83 233.26 L17.01 233.26" class="st16"/>
		</g>
		<g id="shape2954-277" transform="translate(476.204,85.8787) rotate(90)">
			<title>工作表.2954</title>
			<path d="M3.47 233.26 L3.83 233.26 L17.01 233.26" class="st6"/>
		</g>
		<g id="shape2955-282" transform="translate(480.456,85.8787) rotate(90)">
			<title>工作表.2955</title>
			<path d="M3.47 233.26 L3.83 233.26 L17.01 233.26" class="st17"/>
		</g>
		<g id="shape2956-287" transform="translate(484.708,85.8787) rotate(90)">
			<title>工作表.2956</title>
			<path d="M0 233.26 L13.18 233.26" class="st14"/>
		</g>
		<g id="shape2957-292" transform="translate(419.362,85.8787) rotate(90)">
			<title>工作表.2957</title>
			<path d="M3.47 233.26 L3.83 233.26 L17.01 233.26" class="st6"/>
		</g>
		<g id="shape2958-297" transform="translate(423.614,85.8787) rotate(90)">
			<title>工作表.2958</title>
			<path d="M3.47 233.26 L3.83 233.26 L17.01 233.26" class="st17"/>
		</g>
		<g id="shape2959-302" transform="translate(427.866,85.8787) rotate(90)">
			<title>工作表.2959</title>
			<path d="M3.47 233.26 L3.83 233.26 L17.01 233.26" class="st16"/>
		</g>
		<g id="shape2960-307" transform="translate(447.829,115.643) rotate(90)">
			<title>工作表.2960</title>
			<path d="M3.47 233.26 L3.83 233.26 L17.01 233.26" class="st6"/>
		</g>
		<g id="shape2961-312" transform="translate(452.081,115.643) rotate(90)">
			<title>工作表.2961</title>
			<path d="M3.47 233.26 L3.83 233.26 L17.01 233.26" class="st17"/>
		</g>
		<g id="shape2962-317" transform="translate(456.333,115.643) rotate(90)">
			<title>工作表.2962</title>
			<path d="M3.47 233.26 L3.83 233.26 L17.01 233.26" class="st16"/>
		</g>
		<g id="shape2963-322" transform="translate(476.25,115.643) rotate(90)">
			<title>工作表.2963</title>
			<path d="M3.47 233.26 L3.83 233.26 L17.01 233.26" class="st6"/>
		</g>
		<g id="shape2964-327" transform="translate(480.502,115.643) rotate(90)">
			<title>工作表.2964</title>
			<path d="M3.47 233.26 L3.83 233.26 L17.01 233.26" class="st17"/>
		</g>
		<g id="shape2965-332" transform="translate(484.754,115.643) rotate(90)">
			<title>工作表.2965</title>
			<path d="M3.47 233.26 L3.83 233.26 L17.01 233.26" class="st16"/>
		</g>
		<g id="shape2966-337" transform="translate(476.294,142.217) rotate(90)">
			<title>工作表.2966</title>
			<path d="M3.47 233.26 L3.83 233.26 L17.01 233.26" class="st6"/>
		</g>
		<g id="shape2967-342" transform="translate(480.546,142.217) rotate(90)">
			<title>工作表.2967</title>
			<path d="M3.47 233.26 L3.83 233.26 L17.01 233.26" class="st17"/>
		</g>
		<g id="shape2968-347" transform="translate(484.798,142.217) rotate(90)">
			<title>工作表.2968</title>
			<path d="M3.47 233.26 L3.83 233.26 L17.01 233.26" class="st16"/>
		</g>
		<g id="shape2969-352" transform="translate(225.075,-205.842)">
			<title>工作表.2969</title>
			<path d="M3.47 233.26 L3.83 233.26 L14.8 233.26" class="st6"/>
		</g>
		<g id="shape2970-357" transform="translate(225.075,-210.094)">
			<title>工作表.2970</title>
			<path d="M0 233.26 L8.34 233.26" class="st19"/>
		</g>
		<g id="shape2971-363" transform="translate(225.075,-214.346)">
			<title>工作表.2971</title>
			<path d="M3.47 233.26 L3.83 233.26 L14.8 233.26" class="st16"/>
		</g>
		<g id="shape2972-368" transform="translate(225.075,-177.496)">
			<title>工作表.2972</title>
			<path d="M3.47 233.26 L3.83 233.26 L14.8 233.26" class="st6"/>
		</g>
		<g id="shape2973-373" transform="translate(225.075,-181.748)">
			<title>工作表.2973</title>
			<path d="M0 233.26 L10.97 233.26" class="st20"/>
		</g>
		<g id="shape2974-379" transform="translate(225.075,-186)">
			<title>工作表.2974</title>
			<path d="M3.47 233.26 L3.83 233.26 L14.8 233.26" class="st16"/>
		</g>
		<g id="shape2975-384" transform="translate(225.075,-149.149)">
			<title>工作表.2975</title>
			<path d="M3.47 233.26 L3.83 233.26 L14.8 233.26" class="st6"/>
		</g>
		<g id="shape2976-389" transform="translate(225.075,-153.401)">
			<title>工作表.2976</title>
			<path d="M0 233.26 L8.34 233.26" class="st19"/>
		</g>
		<g id="shape2977-394" transform="translate(225.075,-157.653)">
			<title>工作表.2977</title>
			<path d="M3.47 233.26 L3.83 233.26 L14.8 233.26" class="st16"/>
		</g>
		<g id="shape2978-399" transform="translate(225.075,-120.803)">
			<title>工作表.2978</title>
			<path d="M3.47 233.26 L3.83 233.26 L14.8 233.26" class="st6"/>
		</g>
		<g id="shape2979-404" transform="translate(225.075,-125.055)">
			<title>工作表.2979</title>
			<path d="M3.47 233.26 L3.83 233.26 L14.8 233.26" class="st17"/>
		</g>
		<g id="shape2980-409" transform="translate(225.075,-129.307)">
			<title>工作表.2980</title>
			<path d="M3.47 233.26 L3.83 233.26 L14.8 233.26" class="st16"/>
		</g>
		<g id="shape2981-414" transform="translate(225.075,-92.4562)">
			<title>工作表.2981</title>
			<path d="M3.47 233.26 L3.83 233.26 L14.8 233.26" class="st6"/>
		</g>
		<g id="shape2982-419" transform="translate(225.075,-96.7082)">
			<title>工作表.2982</title>
			<path d="M3.47 233.26 L3.83 233.26 L14.8 233.26" class="st17"/>
		</g>
		<g id="shape2983-424" transform="translate(225.075,-100.96)">
			<title>工作表.2983</title>
			<path d="M3.47 233.26 L3.83 233.26 L14.8 233.26" class="st16"/>
		</g>
		<g id="shape2984-429" transform="translate(196.729,-205.842)">
			<title>工作表.2984</title>
			<path d="M3.47 233.26 L3.83 233.26 L14.8 233.26" class="st6"/>
		</g>
		<g id="shape2985-434" transform="translate(196.729,-210.094)">
			<title>工作表.2985</title>
			<path d="M0 233.26 L10.97 233.26" class="st20"/>
		</g>
		<g id="shape2986-439" transform="translate(196.729,-214.346)">
			<title>工作表.2986</title>
			<path d="M6.1 233.26 L6.46 233.26 L14.8 233.26" class="st10"/>
		</g>
		<g id="shape2987-444" transform="translate(196.729,-177.496)">
			<title>工作表.2987</title>
			<path d="M3.47 233.26 L3.83 233.26 L14.8 233.26" class="st6"/>
		</g>
		<g id="shape2988-449" transform="translate(196.729,-181.748)">
			<title>工作表.2988</title>
			<path d="M0 233.26 L10.97 233.26" class="st20"/>
		</g>
		<g id="shape2989-454" transform="translate(196.729,-186)">
			<title>工作表.2989</title>
			<path d="M3.47 233.26 L3.83 233.26 L14.8 233.26" class="st16"/>
		</g>
		<g id="shape2990-459" transform="translate(196.729,-149.149)">
			<title>工作表.2990</title>
			<path d="M3.47 233.26 L3.83 233.26 L14.8 233.26" class="st6"/>
		</g>
		<g id="shape2991-464" transform="translate(196.729,-153.401)">
			<title>工作表.2991</title>
			<path d="M3.47 233.26 L3.83 233.26 L14.8 233.26" class="st17"/>
		</g>
		<g id="shape2992-469" transform="translate(196.729,-157.653)">
			<title>工作表.2992</title>
			<path d="M3.47 233.26 L3.83 233.26 L14.8 233.26" class="st16"/>
		</g>
		<g id="shape2993-474" transform="translate(196.729,-120.803)">
			<title>工作表.2993</title>
			<path d="M3.47 233.26 L3.83 233.26 L14.8 233.26" class="st6"/>
		</g>
		<g id="shape2994-479" transform="translate(196.729,-125.055)">
			<title>工作表.2994</title>
			<path d="M3.47 233.26 L3.83 233.26 L14.8 233.26" class="st17"/>
		</g>
		<g id="shape2995-484" transform="translate(196.729,-129.307)">
			<title>工作表.2995</title>
			<path d="M3.47 233.26 L3.83 233.26 L14.8 233.26" class="st16"/>
		</g>
		<g id="shape2996-489" transform="translate(169.486,-205.842)">
			<title>工作表.2996</title>
			<path d="M3.47 233.26 L3.83 233.26 L14.8 233.26" class="st6"/>
		</g>
		<g id="shape2997-494" transform="translate(169.486,-210.094)">
			<title>工作表.2997</title>
			<path d="M0 233.26 L10.97 233.26" class="st20"/>
		</g>
		<g id="shape2998-499" transform="translate(169.486,-214.346)">
			<title>工作表.2998</title>
			<path d="M3.47 233.26 L3.83 233.26 L14.8 233.26" class="st16"/>
		</g>
		<g id="shape2999-504" transform="translate(169.486,-177.496)">
			<title>工作表.2999</title>
			<path d="M3.47 233.26 L3.83 233.26 L14.8 233.26" class="st6"/>
		</g>
		<g id="shape3000-509" transform="translate(169.486,-181.748)">
			<title>工作表.3000</title>
			<path d="M0 233.26 L8.34 233.26" class="st19"/>
		</g>
		<g id="shape3001-514" transform="translate(169.486,-186)">
			<title>工作表.3001</title>
			<path d="M3.47 233.26 L3.83 233.26 L14.8 233.26" class="st16"/>
		</g>
		<g id="shape3002-519" transform="translate(169.486,-149.149)">
			<title>工作表.3002</title>
			<path d="M3.47 233.26 L3.83 233.26 L14.8 233.26" class="st6"/>
		</g>
		<g id="shape3003-524" transform="translate(169.486,-153.401)">
			<title>工作表.3003</title>
			<path d="M3.47 233.26 L3.83 233.26 L14.8 233.26" class="st17"/>
		</g>
		<g id="shape3004-529" transform="translate(169.486,-157.653)">
			<title>工作表.3004</title>
			<path d="M3.47 233.26 L3.83 233.26 L14.8 233.26" class="st16"/>
		</g>
		<g id="shape3005-534" transform="translate(141.14,-205.842)">
			<title>工作表.3005</title>
			<path d="M3.47 233.26 L3.83 233.26 L14.8 233.26" class="st6"/>
		</g>
		<g id="shape3006-539" transform="translate(141.14,-210.094)">
			<title>工作表.3006</title>
			<path d="M3.47 233.26 L3.83 233.26 L14.8 233.26" class="st17"/>
		</g>
		<g id="shape3007-544" transform="translate(141.14,-214.346)">
			<title>工作表.3007</title>
			<path d="M3.47 233.26 L3.83 233.26 L14.8 233.26" class="st16"/>
		</g>
		<g id="shape3008-549" transform="translate(141.14,-177.496)">
			<title>工作表.3008</title>
			<path d="M3.47 233.26 L3.83 233.26 L14.8 233.26" class="st6"/>
		</g>
		<g id="shape3009-554" transform="translate(141.14,-181.748)">
			<title>工作表.3009</title>
			<path d="M3.47 233.26 L3.83 233.26 L14.8 233.26" class="st17"/>
		</g>
		<g id="shape3010-559" transform="translate(141.14,-186)">
			<title>工作表.3010</title>
			<path d="M3.47 233.26 L3.83 233.26 L14.8 233.26" class="st16"/>
		</g>
		<g id="shape3011-564" transform="translate(112.793,-205.842)">
			<title>工作表.3011</title>
			<path d="M6.1 233.26 L6.46 233.26 L14.8 233.26" class="st21"/>
		</g>
		<g id="shape3012-570" transform="translate(112.793,-210.094)">
			<title>工作表.3012</title>
			<path d="M3.47 233.26 L3.83 233.26 L14.8 233.26" class="st17"/>
		</g>
		<g id="shape3013-575" transform="translate(112.793,-214.346)">
			<title>工作表.3013</title>
			<path d="M0 233.26 L10.97 233.26" class="st14"/>
		</g>
		<g id="shape3147-580" transform="translate(270.041,-129.711)">
			<title>工作表.3147</title>
			<path d="M6.67 233.26 L7.03 233.26 L14.22 233.26" class="st22"/>
		</g>
		<g id="shape3148-589" transform="translate(270.041,-138.215)">
			<title>工作表.3148</title>
			<path d="M6.67 233.26 L7.03 233.26 L21.26 233.26" class="st24"/>
		</g>
		<g id="shape3149-595" transform="translate(270.53,-121.179)">
			<title>工作表.3149</title>
			<path d="M0 233.26 L14.22 233.26" class="st26"/>
		</g>
		<g id="shape3150-601" transform="translate(88.5196,-99.8397)">
			<title>工作表.3150</title>
			<desc>Type = RRAM</desc>
			<rect x="0" y="211.288" width="126.753" height="21.9685" class="st4"/>
			<text x="4" y="225.27" class="st5">Type = RRAM</text>		</g>
		<g id="group3152-604" transform="translate(94.793,-47.9394)">
			<title>工作表.3152</title>
			<g id="shape3153-605" transform="translate(0,-27.6984)">
				<title>工作表.3153</title>
				<path d="M0 233.26 L28.9 233.26" class="st28"/>
			</g>
			<g id="shape3154-611" transform="translate(0,-37.896)">
				<title>工作表.3154</title>
				<path d="M0 233.26 L28.9 233.26" class="st30"/>
			</g>
			<g id="shape3155-617" transform="translate(2.79776E-13,-48.0937)">
				<title>工作表.3155</title>
				<path d="M0 233.26 L28.9 233.26" class="st32"/>
			</g>
			<g id="shape3156-623" transform="translate(36.0016,2.84217E-14)">
				<title>工作表.3156</title>
				<desc>Area Down Power Down Latency Down Same Trend Different Trend</desc>
				<rect x="0" y="179.493" width="98.7361" height="53.763" class="st4"/>
				<text x="4" y="185.37" class="st34">Area Down <tspan x="4" dy="1em" class="st35">Power Down </tspan><tspan x="4"
							dy="1em" class="st36">Latency Down </tspan><tspan x="4" dy="1em" class="st37">Same Trend </tspan><tspan
							x="4" dy="1em" class="st37">Different Trend</tspan></text>			</g>
			<g id="shape3157-630" transform="translate(2.79776E-13,-17.5007)">
				<title>工作表.3157</title>
				<path d="M0 233.26 L30.21 233.26" class="st38"/>
			</g>
			<g id="shape3158-636" transform="translate(2.79776E-13,-7.30298)">
				<title>工作表.3158</title>
				<path d="M0 233.26 L27.59 233.26" class="st40"/>
			</g>
		</g>
	</g>
</svg>
