<?xml version="1.0" encoding="UTF-8" standalone="no"?>
<!DOCTYPE svg PUBLIC "-//W3C//DTD SVG 1.1//EN" "http://www.w3.org/Graphics/SVG/1.1/DTD/svg11.dtd">
<!-- 由 Microsoft Visio, SVG Export 生成 3-sram.svg 页-1 -->
<svg xmlns="http://www.w3.org/2000/svg" xmlns:xlink="http://www.w3.org/1999/xlink" xmlns:ev="http://www.w3.org/2001/xml-events"
		width="4.12994in" height="3.23566in" viewBox="0 0 297.356 232.967" xml:space="preserve" color-interpolation-filters="sRGB"
		class="st36">
	<style type="text/css">
	<![CDATA[
		.st1 {marker-end:url(#mrkr5-6);stroke:#000000;stroke-linecap:round;stroke-linejoin:round;stroke-width:1.5}
		.st2 {fill:#000000;fill-opacity:1;stroke:#000000;stroke-opacity:1;stroke-width:0.37313432835821}
		.st3 {fill:#000000;stroke:#000000;stroke-linecap:round;stroke-linejoin:round;stroke-width:1.5}
		.st4 {fill:none;stroke:none;stroke-linecap:round;stroke-linejoin:round;stroke-width:1.5}
		.st5 {fill:#000000;font-family:Arial;font-size:1.00001em;font-weight:bold}
		.st6 {marker-start:url(#mrkr5-48);stroke:#0070c0;stroke-dasharray:0.75,1.5;stroke-linecap:round;stroke-linejoin:round;stroke-width:0.75}
		.st7 {fill:#0070c0;fill-opacity:1;stroke:#0070c0;stroke-opacity:1;stroke-width:0.34246575342466}
		.st8 {marker-end:url(#mrkr5-54);stroke:#9dbb61;stroke-linecap:round;stroke-linejoin:round;stroke-width:2.25}
		.st9 {fill:#9dbb61;fill-opacity:1;stroke:#9dbb61;stroke-opacity:1;stroke-width:0.60975609756098}
		.st10 {marker-end:url(#mrkr5-60);stroke:#c00000;stroke-linecap:round;stroke-linejoin:round;stroke-width:2.25}
		.st11 {fill:#c00000;fill-opacity:1;stroke:#c00000;stroke-opacity:1;stroke-width:0.60975609756098}
		.st12 {marker-start:url(#mrkr5-66);stroke:#0070c0;stroke-linecap:round;stroke-linejoin:round;stroke-width:2.25}
		.st13 {fill:#0070c0;fill-opacity:1;stroke:#0070c0;stroke-opacity:1;stroke-width:0.60975609756098}
		.st14 {marker-end:url(#mrkr5-77);stroke:#c00000;stroke-dasharray:0.75,1.5;stroke-linecap:round;stroke-linejoin:round;stroke-width:0.75}
		.st15 {fill:#c00000;fill-opacity:1;stroke:#c00000;stroke-opacity:1;stroke-width:0.34246575342466}
		.st16 {marker-start:url(#mrkr5-197);stroke:#c00000;stroke-dasharray:0.75,1.5;stroke-linecap:round;stroke-linejoin:round;stroke-width:0.75}
		.st17 {marker-start:url(#mrkr5-208);stroke:#9dbb61;stroke-dasharray:0.75,1.5;stroke-linecap:round;stroke-linejoin:round;stroke-width:0.75}
		.st18 {fill:#9dbb61;fill-opacity:1;stroke:#9dbb61;stroke-opacity:1;stroke-width:0.34246575342466}
		.st19 {marker-start:url(#mrkr5-344);stroke:#9dbb61;stroke-linecap:round;stroke-linejoin:round;stroke-width:2.25}
		.st20 {marker-end:url(#mrkr5-360);stroke:#9dbb61;stroke-dasharray:0.75,1.5;stroke-linecap:round;stroke-linejoin:round;stroke-width:0.75}
		.st21 {marker-end:url(#mrkr5-551);stroke:#0070c0;stroke-linecap:round;stroke-linejoin:round;stroke-width:2.25}
		.st22 {marker-end:url(#mrkr5-571);stroke:#0070c0;stroke-linecap:round;stroke-linejoin:round;stroke-width:1.5}
		.st23 {fill:#0070c0;fill-opacity:1;stroke:#0070c0;stroke-opacity:1;stroke-width:0.51020408163265}
		.st24 {marker-end:url(#mrkr5-577);stroke:#9dbb61;stroke-linecap:round;stroke-linejoin:round;stroke-width:1.5}
		.st25 {fill:#9dbb61;fill-opacity:1;stroke:#9dbb61;stroke-opacity:1;stroke-width:0.51020408163265}
		.st26 {marker-end:url(#mrkr5-583);stroke:#c00000;stroke-linecap:round;stroke-linejoin:round;stroke-width:1.5}
		.st27 {fill:#c00000;fill-opacity:1;stroke:#c00000;stroke-opacity:1;stroke-width:0.51020408163265}
		.st28 {fill:#c00000;font-family:Arial;font-size:1.00001em;font-weight:bold}
		.st29 {fill:#9dbb61;font-size:1em}
		.st30 {fill:#0070c0;font-size:1em}
		.st31 {fill:#000000;font-size:1em}
		.st32 {marker-end:url(#mrkr5-596);stroke:#000000;stroke-dasharray:0.75,1.5;stroke-linecap:round;stroke-linejoin:round;stroke-width:0.75}
		.st33 {fill:#000000;fill-opacity:1;stroke:#000000;stroke-opacity:1;stroke-width:0.34246575342466}
		.st34 {marker-end:url(#mrkr5-602);stroke:#000000;stroke-linecap:round;stroke-linejoin:round;stroke-width:2.25}
		.st35 {fill:#000000;fill-opacity:1;stroke:#000000;stroke-opacity:1;stroke-width:0.60975609756098}
		.st36 {fill:none;fill-rule:evenodd;font-size:12px;overflow:visible;stroke-linecap:square;stroke-miterlimit:3}
	]]>
	</style>

	<defs id="Markers">
		<g id="lend5">
			<path d="M 2 1 L 0 0 L 1.98117 -0.993387 C 1.67173 -0.364515 1.67301 0.372641 1.98465 1.00043 " style="stroke:none"/>
		</g>
		<marker id="mrkr5-6" class="st2" refX="-4.69" orient="auto" markerUnits="strokeWidth" overflow="visible">
			<use xlink:href="#lend5" transform="scale(-2.68,-2.68) "/>
		</marker>
		<marker id="mrkr5-48" class="st7" refX="4.63" orient="auto" markerUnits="strokeWidth" overflow="visible">
			<use xlink:href="#lend5" transform="scale(2.92) "/>
		</marker>
		<marker id="mrkr5-54" class="st9" refX="-2.87" orient="auto" markerUnits="strokeWidth" overflow="visible">
			<use xlink:href="#lend5" transform="scale(-1.64,-1.64) "/>
		</marker>
		<marker id="mrkr5-60" class="st11" refX="-2.87" orient="auto" markerUnits="strokeWidth" overflow="visible">
			<use xlink:href="#lend5" transform="scale(-1.64,-1.64) "/>
		</marker>
		<marker id="mrkr5-66" class="st13" refX="2.71" orient="auto" markerUnits="strokeWidth" overflow="visible">
			<use xlink:href="#lend5" transform="scale(1.64) "/>
		</marker>
		<marker id="mrkr5-77" class="st15" refX="-5.11" orient="auto" markerUnits="strokeWidth" overflow="visible">
			<use xlink:href="#lend5" transform="scale(-2.92,-2.92) "/>
		</marker>
		<marker id="mrkr5-197" class="st15" refX="4.63" orient="auto" markerUnits="strokeWidth" overflow="visible">
			<use xlink:href="#lend5" transform="scale(2.92) "/>
		</marker>
		<marker id="mrkr5-208" class="st18" refX="4.63" orient="auto" markerUnits="strokeWidth" overflow="visible">
			<use xlink:href="#lend5" transform="scale(2.92) "/>
		</marker>
		<marker id="mrkr5-344" class="st9" refX="2.71" orient="auto" markerUnits="strokeWidth" overflow="visible">
			<use xlink:href="#lend5" transform="scale(1.64) "/>
		</marker>
		<marker id="mrkr5-360" class="st18" refX="-5.11" orient="auto" markerUnits="strokeWidth" overflow="visible">
			<use xlink:href="#lend5" transform="scale(-2.92,-2.92) "/>
		</marker>
		<marker id="mrkr5-551" class="st13" refX="-2.87" orient="auto" markerUnits="strokeWidth" overflow="visible">
			<use xlink:href="#lend5" transform="scale(-1.64,-1.64) "/>
		</marker>
		<marker id="mrkr5-571" class="st23" refX="-3.43" orient="auto" markerUnits="strokeWidth" overflow="visible">
			<use xlink:href="#lend5" transform="scale(-1.96,-1.96) "/>
		</marker>
		<marker id="mrkr5-577" class="st25" refX="-3.43" orient="auto" markerUnits="strokeWidth" overflow="visible">
			<use xlink:href="#lend5" transform="scale(-1.96,-1.96) "/>
		</marker>
		<marker id="mrkr5-583" class="st27" refX="-3.43" orient="auto" markerUnits="strokeWidth" overflow="visible">
			<use xlink:href="#lend5" transform="scale(-1.96,-1.96) "/>
		</marker>
		<marker id="mrkr5-596" class="st33" refX="-5.11" orient="auto" markerUnits="strokeWidth" overflow="visible">
			<use xlink:href="#lend5" transform="scale(-2.92,-2.92) "/>
		</marker>
		<marker id="mrkr5-602" class="st35" refX="-2.87" orient="auto" markerUnits="strokeWidth" overflow="visible">
			<use xlink:href="#lend5" transform="scale(-1.64,-1.64) "/>
		</marker>
	</defs>
	<g>
		<title>页-1</title>
		<g id="shape3014-1" transform="translate(77.3761,-39.0177)">
			<title>工作表.3014</title>
			<path d="M0 232.97 L197.91 232.97" class="st1"/>
		</g>
		<g id="shape3015-7" transform="translate(132.652,-37.6004)">
			<title>工作表.3015</title>
			<ellipse cx="1.41732" cy="231.55" rx="1.41732" ry="1.41732" class="st3"/>
		</g>
		<g id="shape3016-9" transform="translate(104.305,-37.6004)">
			<title>工作表.3016</title>
			<ellipse cx="1.41732" cy="231.55" rx="1.41732" ry="1.41732" class="st3"/>
		</g>
		<g id="shape3017-11" transform="translate(160.998,-37.6004)">
			<title>工作表.3017</title>
			<ellipse cx="1.41732" cy="231.55" rx="1.41732" ry="1.41732" class="st3"/>
		</g>
		<g id="shape3018-13" transform="translate(-155.591,193.631) rotate(-90)">
			<title>工作表.3018</title>
			<path d="M0 232.97 L177.61 232.97" class="st1"/>
		</g>
		<g id="shape3019-18" transform="translate(-154.174,138.355) rotate(-90)">
			<title>工作表.3019</title>
			<ellipse cx="1.41732" cy="231.55" rx="1.41732" ry="1.41732" class="st3"/>
		</g>
		<g id="shape3020-20" transform="translate(-154.174,166.702) rotate(-90)">
			<title>工作表.3020</title>
			<ellipse cx="1.41732" cy="231.55" rx="1.41732" ry="1.41732" class="st3"/>
		</g>
		<g id="shape3021-22" transform="translate(-154.197,110.009) rotate(-90)">
			<title>工作表.3021</title>
			<ellipse cx="1.41732" cy="231.317" rx="1.41732" ry="1.65029" class="st3"/>
		</g>
		<g id="shape3022-24" transform="translate(237.078,-42.9982)">
			<title>工作表.3022</title>
			<desc>PE_Num</desc>
			<rect x="0" y="223.046" width="59.5275" height="9.92126" class="st4"/>
			<text x="5.09" y="231.01" class="st5">PE_Num</text>		</g>
		<g id="shape3023-27" transform="translate(0.75,-216.892)">
			<title>工作表.3023</title>
			<desc>Array_ Size</desc>
			<rect x="0" y="223.046" width="74.2245" height="9.92126" class="st4"/>
			<text x="4.43" y="231.01" class="st5">Array_ Size</text>		</g>
		<g id="shape3024-30" transform="translate(18.3852,-119.415)">
			<title>工作表.3024</title>
			<desc>(128,128)</desc>
			<rect x="0" y="223.046" width="59.8898" height="9.92126" class="st4"/>
			<text x="4.52" y="231.01" class="st5">(128,128)</text>		</g>
		<g id="shape3025-33" transform="translate(31.3131,-91.0689)">
			<title>工作表.3025</title>
			<desc>(64,64)</desc>
			<rect x="0" y="223.046" width="47.0551" height="9.92126" class="st4"/>
			<text x="5.03" y="231.01" class="st5">(64,64)</text>		</g>
		<g id="shape3026-36" transform="translate(31.3131,-62.7224)">
			<title>工作表.3026</title>
			<desc>(32,32)</desc>
			<rect x="0" y="223.046" width="47.0551" height="9.92126" class="st4"/>
			<text x="5.03" y="231.01" class="st5">(32,32)</text>		</g>
		<g id="shape3027-39" transform="translate(-124.41,25.9969) rotate(-90)">
			<title>工作表.3027</title>
			<ellipse cx="2.83465" cy="230.133" rx="2.83465" ry="2.83465" class="st3"/>
		</g>
		<g id="shape3028-41" transform="translate(-96.0636,54.3433) rotate(-90)">
			<title>工作表.3028</title>
			<ellipse cx="2.83465" cy="230.133" rx="2.83465" ry="2.83465" class="st3"/>
		</g>
		<g id="shape3029-43" transform="translate(362.792,28.8315) rotate(90)">
			<title>工作表.3029</title>
			<path d="M3.47 232.97 L3.83 232.97 L17.01 232.97" class="st6"/>
		</g>
		<g id="shape3030-49" transform="translate(367.044,28.8315) rotate(90)">
			<title>工作表.3030</title>
			<path d="M0 232.97 L10.55 232.97" class="st8"/>
		</g>
		<g id="shape3031-55" transform="translate(371.296,28.8315) rotate(90)">
			<title>工作表.3031</title>
			<path d="M0 232.97 L10.55 232.97" class="st10"/>
		</g>
		<g id="shape3032-61" transform="translate(391.213,28.8315) rotate(90)">
			<title>工作表.3032</title>
			<path d="M6.1 232.97 L6.46 232.97 L17.01 232.97" class="st12"/>
		</g>
		<g id="shape3033-67" transform="translate(395.465,28.8315) rotate(90)">
			<title>工作表.3033</title>
			<path d="M0 232.97 L10.55 232.97" class="st8"/>
		</g>
		<g id="shape3034-72" transform="translate(399.717,28.8315) rotate(90)">
			<title>工作表.3034</title>
			<path d="M0 232.97 L13.18 232.97" class="st14"/>
		</g>
		<g id="shape3035-78" transform="translate(217.408,-37.8614)">
			<title>工作表.3035</title>
			<ellipse cx="1.41732" cy="231.55" rx="1.41732" ry="1.41732" class="st3"/>
		</g>
		<g id="shape3036-80" transform="translate(189.061,-37.8614)">
			<title>工作表.3036</title>
			<ellipse cx="1.41732" cy="231.55" rx="1.41732" ry="1.41732" class="st3"/>
		</g>
		<g id="shape3037-82" transform="translate(245.754,-37.8614)">
			<title>工作表.3037</title>
			<ellipse cx="1.41732" cy="231.55" rx="1.41732" ry="1.41732" class="st3"/>
		</g>
		<g id="shape3038-84" transform="translate(-154.032,52.926) rotate(-90)">
			<title>工作表.3038</title>
			<ellipse cx="1.41732" cy="231.317" rx="1.41732" ry="1.65029" class="st3"/>
		</g>
		<g id="shape3039-86" transform="translate(-154.032,81.2724) rotate(-90)">
			<title>工作表.3039</title>
			<ellipse cx="1.41732" cy="231.317" rx="1.41732" ry="1.65029" class="st3"/>
		</g>
		<g id="shape3040-88" transform="translate(-154.032,24.5795) rotate(-90)">
			<title>工作表.3040</title>
			<ellipse cx="1.41732" cy="231.317" rx="1.41732" ry="1.65029" class="st3"/>
		</g>
		<g id="shape3041-90" transform="translate(4.63749,-204.844)">
			<title>工作表.3041</title>
			<desc>(1024,1024)</desc>
			<rect x="0" y="223.046" width="73.6375" height="9.92126" class="st4"/>
			<text x="4.92" y="231.01" class="st5">(1024,1024)</text>		</g>
		<g id="shape3042-93" transform="translate(18.3852,-176.498)">
			<title>工作表.3042</title>
			<desc>(512,512)</desc>
			<rect x="0" y="223.046" width="59.8898" height="9.92126" class="st4"/>
			<text x="4.52" y="231.01" class="st5">(512,512)</text>		</g>
		<g id="shape3043-96" transform="translate(18.3852,-148.152)">
			<title>工作表.3043</title>
			<desc>(256,256)</desc>
			<rect x="0" y="223.046" width="59.8898" height="9.92126" class="st4"/>
			<text x="4.52" y="231.01" class="st5">(256,256)</text>		</g>
		<g id="shape3044-99" transform="translate(-95.9523,25.9969) rotate(-90)">
			<title>工作表.3044</title>
			<ellipse cx="2.83465" cy="230.133" rx="2.83465" ry="2.83465" class="st3"/>
		</g>
		<g id="shape3045-101" transform="translate(-67.7172,82.6898) rotate(-90)">
			<title>工作表.3045</title>
			<ellipse cx="2.83465" cy="230.133" rx="2.83465" ry="2.83465" class="st3"/>
		</g>
		<g id="shape3046-103" transform="translate(-67.7172,54.3433) rotate(-90)">
			<title>工作表.3046</title>
			<ellipse cx="2.83465" cy="230.133" rx="2.83465" ry="2.83465" class="st3"/>
		</g>
		<g id="shape3047-105" transform="translate(-67.7172,25.9969) rotate(-90)">
			<title>工作表.3047</title>
			<ellipse cx="2.83465" cy="230.133" rx="2.83465" ry="2.83465" class="st3"/>
		</g>
		<g id="shape3048-107" transform="translate(-39.6542,111.904) rotate(-90)">
			<title>工作表.3048</title>
			<ellipse cx="2.83465" cy="230.133" rx="2.83465" ry="2.83465" class="st3"/>
		</g>
		<g id="shape3049-109" transform="translate(-39.6542,82.6898) rotate(-90)">
			<title>工作表.3049</title>
			<ellipse cx="2.83465" cy="230.133" rx="2.83465" ry="2.83465" class="st3"/>
		</g>
		<g id="shape3050-111" transform="translate(-39.3707,54.3433) rotate(-90)">
			<title>工作表.3050</title>
			<ellipse cx="2.83465" cy="230.133" rx="2.83465" ry="2.83465" class="st3"/>
		</g>
		<g id="shape3051-113" transform="translate(-39.3707,25.9969) rotate(-90)">
			<title>工作表.3051</title>
			<ellipse cx="2.83465" cy="230.133" rx="2.83465" ry="2.83465" class="st3"/>
		</g>
		<g id="shape3052-115" transform="translate(-11.3078,139.772) rotate(-90)">
			<title>工作表.3052</title>
			<ellipse cx="2.83465" cy="230.133" rx="2.83465" ry="2.83465" class="st3"/>
		</g>
		<g id="shape3053-117" transform="translate(-11.3078,111.904) rotate(-90)">
			<title>工作表.3053</title>
			<ellipse cx="2.83465" cy="230.133" rx="2.83465" ry="2.83465" class="st3"/>
		</g>
		<g id="shape3054-119" transform="translate(-11.3078,82.6898) rotate(-90)">
			<title>工作表.3054</title>
			<ellipse cx="2.83465" cy="230.133" rx="2.83465" ry="2.83465" class="st3"/>
		</g>
		<g id="shape3055-121" transform="translate(-11.3078,54.3433) rotate(-90)">
			<title>工作表.3055</title>
			<ellipse cx="2.83465" cy="230.133" rx="2.83465" ry="2.83465" class="st3"/>
		</g>
		<g id="shape3056-123" transform="translate(-11.3078,25.9969) rotate(-90)">
			<title>工作表.3056</title>
			<ellipse cx="2.83465" cy="230.133" rx="2.83465" ry="2.83465" class="st3"/>
		</g>
		<g id="shape3057-125" transform="translate(17.0387,168.119) rotate(-90)">
			<title>工作表.3057</title>
			<ellipse cx="2.83465" cy="230.133" rx="2.83465" ry="2.83465" class="st3"/>
		</g>
		<g id="shape3058-127" transform="translate(17.0387,139.772) rotate(-90)">
			<title>工作表.3058</title>
			<ellipse cx="2.83465" cy="230.133" rx="2.83465" ry="2.83465" class="st3"/>
		</g>
		<g id="shape3059-129" transform="translate(17.0387,111.904) rotate(-90)">
			<title>工作表.3059</title>
			<ellipse cx="2.83465" cy="230.133" rx="2.83465" ry="2.83465" class="st3"/>
		</g>
		<g id="shape3060-131" transform="translate(17.0387,82.6898) rotate(-90)">
			<title>工作表.3060</title>
			<ellipse cx="2.83465" cy="230.133" rx="2.83465" ry="2.83465" class="st3"/>
		</g>
		<g id="shape3061-133" transform="translate(17.0387,54.3433) rotate(-90)">
			<title>工作表.3061</title>
			<ellipse cx="2.83465" cy="230.133" rx="2.83465" ry="2.83465" class="st3"/>
		</g>
		<g id="shape3062-135" transform="translate(17.0387,25.9969) rotate(-90)">
			<title>工作表.3062</title>
			<ellipse cx="2.83465" cy="230.133" rx="2.83465" ry="2.83465" class="st3"/>
		</g>
		<g id="shape3063-137" transform="translate(447.698,28.8315) rotate(90)">
			<title>工作表.3063</title>
			<path d="M3.47 232.97 L3.83 232.97 L17.01 232.97" class="st6"/>
		</g>
		<g id="shape3064-142" transform="translate(451.95,28.8315) rotate(90)">
			<title>工作表.3064</title>
			<path d="M0 232.97 L10.55 232.97" class="st8"/>
		</g>
		<g id="shape3065-147" transform="translate(456.202,28.8315) rotate(90)">
			<title>工作表.3065</title>
			<path d="M0 232.97 L13.18 232.97" class="st14"/>
		</g>
		<g id="shape3066-152" transform="translate(476.119,28.8315) rotate(90)">
			<title>工作表.3066</title>
			<path d="M3.47 232.97 L3.83 232.97 L17.01 232.97" class="st6"/>
		</g>
		<g id="shape3067-157" transform="translate(480.371,28.8315) rotate(90)">
			<title>工作表.3067</title>
			<path d="M0 232.97 L10.55 232.97" class="st8"/>
		</g>
		<g id="shape3068-162" transform="translate(484.623,28.8315) rotate(90)">
			<title>工作表.3068</title>
			<path d="M0 232.97 L13.18 232.97" class="st14"/>
		</g>
		<g id="shape3069-167" transform="translate(419.276,28.8315) rotate(90)">
			<title>工作表.3069</title>
			<path d="M3.47 232.97 L3.83 232.97 L17.01 232.97" class="st6"/>
		</g>
		<g id="shape3070-172" transform="translate(423.528,28.8315) rotate(90)">
			<title>工作表.3070</title>
			<path d="M0 232.97 L10.55 232.97" class="st8"/>
		</g>
		<g id="shape3071-177" transform="translate(427.78,28.8315) rotate(90)">
			<title>工作表.3071</title>
			<path d="M0 232.97 L13.18 232.97" class="st14"/>
		</g>
		<g id="shape3072-182" transform="translate(391.216,57.178) rotate(90)">
			<title>工作表.3072</title>
			<path d="M3.47 232.97 L3.83 232.97 L17.01 232.97" class="st6"/>
		</g>
		<g id="shape3073-187" transform="translate(395.468,57.178) rotate(90)">
			<title>工作表.3073</title>
			<path d="M0 232.97 L10.55 232.97" class="st8"/>
		</g>
		<g id="shape3074-192" transform="translate(399.719,57.178) rotate(90)">
			<title>工作表.3074</title>
			<path d="M3.47 232.97 L3.83 232.97 L17.01 232.97" class="st16"/>
		</g>
		<g id="shape3075-198" transform="translate(447.7,57.178) rotate(90)">
			<title>工作表.3075</title>
			<path d="M3.47 232.97 L3.83 232.97 L17.01 232.97" class="st6"/>
		</g>
		<g id="shape3076-203" transform="translate(451.952,57.178) rotate(90)">
			<title>工作表.3076</title>
			<path d="M3.47 232.97 L3.83 232.97 L17.01 232.97" class="st17"/>
		</g>
		<g id="shape3077-209" transform="translate(456.204,57.178) rotate(90)">
			<title>工作表.3077</title>
			<path d="M0 232.97 L13.18 232.97" class="st14"/>
		</g>
		<g id="shape3078-214" transform="translate(476.121,57.178) rotate(90)">
			<title>工作表.3078</title>
			<path d="M3.47 232.97 L3.83 232.97 L17.01 232.97" class="st6"/>
		</g>
		<g id="shape3079-219" transform="translate(480.373,57.178) rotate(90)">
			<title>工作表.3079</title>
			<path d="M0 232.97 L10.55 232.97" class="st8"/>
		</g>
		<g id="shape3080-224" transform="translate(484.625,57.178) rotate(90)">
			<title>工作表.3080</title>
			<path d="M0 232.97 L13.18 232.97" class="st14"/>
		</g>
		<g id="shape3081-229" transform="translate(419.279,57.178) rotate(90)">
			<title>工作表.3081</title>
			<path d="M3.47 232.97 L3.83 232.97 L17.01 232.97" class="st6"/>
		</g>
		<g id="shape3082-234" transform="translate(423.531,57.178) rotate(90)">
			<title>工作表.3082</title>
			<path d="M0 232.97 L10.55 232.97" class="st8"/>
		</g>
		<g id="shape3083-239" transform="translate(427.783,57.178) rotate(90)">
			<title>工作表.3083</title>
			<path d="M0 232.97 L10.55 232.97" class="st10"/>
		</g>
		<g id="shape3084-244" transform="translate(447.592,85.8787) rotate(90)">
			<title>工作表.3084</title>
			<path d="M3.47 232.97 L3.83 232.97 L17.01 232.97" class="st6"/>
		</g>
		<g id="shape3085-249" transform="translate(451.844,85.8787) rotate(90)">
			<title>工作表.3085</title>
			<path d="M3.47 232.97 L3.83 232.97 L17.01 232.97" class="st17"/>
		</g>
		<g id="shape3086-254" transform="translate(456.096,85.8787) rotate(90)">
			<title>工作表.3086</title>
			<path d="M3.47 232.97 L3.83 232.97 L17.01 232.97" class="st16"/>
		</g>
		<g id="shape3087-259" transform="translate(476.013,85.8787) rotate(90)">
			<title>工作表.3087</title>
			<path d="M3.47 232.97 L3.83 232.97 L17.01 232.97" class="st6"/>
		</g>
		<g id="shape3088-264" transform="translate(480.265,85.8787) rotate(90)">
			<title>工作表.3088</title>
			<path d="M3.47 232.97 L3.83 232.97 L17.01 232.97" class="st17"/>
		</g>
		<g id="shape3089-269" transform="translate(484.517,85.8787) rotate(90)">
			<title>工作表.3089</title>
			<path d="M0 232.97 L13.18 232.97" class="st14"/>
		</g>
		<g id="shape3090-274" transform="translate(419.171,85.8787) rotate(90)">
			<title>工作表.3090</title>
			<path d="M3.47 232.97 L3.83 232.97 L17.01 232.97" class="st6"/>
		</g>
		<g id="shape3091-279" transform="translate(423.423,85.8787) rotate(90)">
			<title>工作表.3091</title>
			<path d="M3.47 232.97 L3.83 232.97 L17.01 232.97" class="st17"/>
		</g>
		<g id="shape3092-284" transform="translate(427.675,85.8787) rotate(90)">
			<title>工作表.3092</title>
			<path d="M3.47 232.97 L3.83 232.97 L17.01 232.97" class="st16"/>
		</g>
		<g id="shape3093-289" transform="translate(447.638,115.643) rotate(90)">
			<title>工作表.3093</title>
			<path d="M3.47 232.97 L3.83 232.97 L17.01 232.97" class="st6"/>
		</g>
		<g id="shape3094-294" transform="translate(451.89,115.643) rotate(90)">
			<title>工作表.3094</title>
			<path d="M3.47 232.97 L3.83 232.97 L17.01 232.97" class="st17"/>
		</g>
		<g id="shape3095-299" transform="translate(456.142,115.643) rotate(90)">
			<title>工作表.3095</title>
			<path d="M3.47 232.97 L3.83 232.97 L17.01 232.97" class="st16"/>
		</g>
		<g id="shape3096-304" transform="translate(476.06,115.643) rotate(90)">
			<title>工作表.3096</title>
			<path d="M3.47 232.97 L3.83 232.97 L17.01 232.97" class="st6"/>
		</g>
		<g id="shape3097-309" transform="translate(480.312,115.643) rotate(90)">
			<title>工作表.3097</title>
			<path d="M3.47 232.97 L3.83 232.97 L17.01 232.97" class="st17"/>
		</g>
		<g id="shape3098-314" transform="translate(484.564,115.643) rotate(90)">
			<title>工作表.3098</title>
			<path d="M3.47 232.97 L3.83 232.97 L17.01 232.97" class="st16"/>
		</g>
		<g id="shape3099-319" transform="translate(476.103,142.217) rotate(90)">
			<title>工作表.3099</title>
			<path d="M3.47 232.97 L3.83 232.97 L17.01 232.97" class="st6"/>
		</g>
		<g id="shape3100-324" transform="translate(480.355,142.217) rotate(90)">
			<title>工作表.3100</title>
			<path d="M3.47 232.97 L3.83 232.97 L17.01 232.97" class="st17"/>
		</g>
		<g id="shape3101-329" transform="translate(484.607,142.217) rotate(90)">
			<title>工作表.3101</title>
			<path d="M3.47 232.97 L3.83 232.97 L17.01 232.97" class="st16"/>
		</g>
		<g id="shape3102-334" transform="translate(225.173,-205.553)">
			<title>工作表.3102</title>
			<path d="M3.47 232.97 L3.83 232.97 L14.8 232.97" class="st6"/>
		</g>
		<g id="shape3103-339" transform="translate(225.173,-209.805)">
			<title>工作表.3103</title>
			<path d="M6.1 232.97 L6.46 232.97 L14.8 232.97" class="st19"/>
		</g>
		<g id="shape3104-345" transform="translate(225.173,-214.057)">
			<title>工作表.3104</title>
			<path d="M3.47 232.97 L3.83 232.97 L14.8 232.97" class="st16"/>
		</g>
		<g id="shape3105-350" transform="translate(225.173,-177.207)">
			<title>工作表.3105</title>
			<path d="M3.47 232.97 L3.83 232.97 L14.8 232.97" class="st6"/>
		</g>
		<g id="shape3106-355" transform="translate(225.173,-181.459)">
			<title>工作表.3106</title>
			<path d="M0 232.97 L10.97 232.97" class="st20"/>
		</g>
		<g id="shape3107-361" transform="translate(225.173,-185.711)">
			<title>工作表.3107</title>
			<path d="M3.47 232.97 L3.83 232.97 L14.8 232.97" class="st16"/>
		</g>
		<g id="shape3108-366" transform="translate(225.173,-148.86)">
			<title>工作表.3108</title>
			<path d="M3.47 232.97 L3.83 232.97 L14.8 232.97" class="st6"/>
		</g>
		<g id="shape3109-371" transform="translate(225.173,-153.112)">
			<title>工作表.3109</title>
			<path d="M6.1 232.97 L6.46 232.97 L14.8 232.97" class="st19"/>
		</g>
		<g id="shape3110-376" transform="translate(225.173,-157.364)">
			<title>工作表.3110</title>
			<path d="M3.47 232.97 L3.83 232.97 L14.8 232.97" class="st16"/>
		</g>
		<g id="shape3111-381" transform="translate(225.173,-120.514)">
			<title>工作表.3111</title>
			<path d="M3.47 232.97 L3.83 232.97 L14.8 232.97" class="st6"/>
		</g>
		<g id="shape3112-386" transform="translate(225.173,-124.766)">
			<title>工作表.3112</title>
			<path d="M3.47 232.97 L3.83 232.97 L14.8 232.97" class="st17"/>
		</g>
		<g id="shape3113-391" transform="translate(225.173,-129.018)">
			<title>工作表.3113</title>
			<path d="M3.47 232.97 L3.83 232.97 L14.8 232.97" class="st16"/>
		</g>
		<g id="shape3114-396" transform="translate(225.173,-92.1673)">
			<title>工作表.3114</title>
			<path d="M3.47 232.97 L3.83 232.97 L14.8 232.97" class="st6"/>
		</g>
		<g id="shape3115-401" transform="translate(225.173,-96.4193)">
			<title>工作表.3115</title>
			<path d="M3.47 232.97 L3.83 232.97 L14.8 232.97" class="st17"/>
		</g>
		<g id="shape3116-406" transform="translate(225.173,-100.671)">
			<title>工作表.3116</title>
			<path d="M3.47 232.97 L3.83 232.97 L14.8 232.97" class="st16"/>
		</g>
		<g id="shape3117-411" transform="translate(196.827,-205.553)">
			<title>工作表.3117</title>
			<path d="M3.47 232.97 L3.83 232.97 L14.8 232.97" class="st6"/>
		</g>
		<g id="shape3118-416" transform="translate(196.827,-209.805)">
			<title>工作表.3118</title>
			<path d="M0 232.97 L10.97 232.97" class="st20"/>
		</g>
		<g id="shape3119-421" transform="translate(196.827,-214.057)">
			<title>工作表.3119</title>
			<path d="M0 232.97 L8.34 232.97" class="st10"/>
		</g>
		<g id="shape3120-426" transform="translate(196.827,-177.207)">
			<title>工作表.3120</title>
			<path d="M3.47 232.97 L3.83 232.97 L14.8 232.97" class="st6"/>
		</g>
		<g id="shape3121-431" transform="translate(196.827,-181.459)">
			<title>工作表.3121</title>
			<path d="M0 232.97 L10.97 232.97" class="st20"/>
		</g>
		<g id="shape3122-436" transform="translate(196.827,-185.711)">
			<title>工作表.3122</title>
			<path d="M3.47 232.97 L3.83 232.97 L14.8 232.97" class="st16"/>
		</g>
		<g id="shape3123-441" transform="translate(196.827,-148.86)">
			<title>工作表.3123</title>
			<path d="M3.47 232.97 L3.83 232.97 L14.8 232.97" class="st6"/>
		</g>
		<g id="shape3124-446" transform="translate(196.827,-153.112)">
			<title>工作表.3124</title>
			<path d="M3.47 232.97 L3.83 232.97 L14.8 232.97" class="st17"/>
		</g>
		<g id="shape3125-451" transform="translate(196.827,-157.364)">
			<title>工作表.3125</title>
			<path d="M3.47 232.97 L3.83 232.97 L14.8 232.97" class="st16"/>
		</g>
		<g id="shape3126-456" transform="translate(196.827,-120.514)">
			<title>工作表.3126</title>
			<path d="M3.47 232.97 L3.83 232.97 L14.8 232.97" class="st6"/>
		</g>
		<g id="shape3127-461" transform="translate(196.827,-124.766)">
			<title>工作表.3127</title>
			<path d="M3.47 232.97 L3.83 232.97 L14.8 232.97" class="st17"/>
		</g>
		<g id="shape3128-466" transform="translate(196.827,-129.018)">
			<title>工作表.3128</title>
			<path d="M3.47 232.97 L3.83 232.97 L14.8 232.97" class="st16"/>
		</g>
		<g id="shape3129-471" transform="translate(169.584,-205.553)">
			<title>工作表.3129</title>
			<path d="M3.47 232.97 L3.83 232.97 L14.8 232.97" class="st6"/>
		</g>
		<g id="shape3130-476" transform="translate(169.584,-209.805)">
			<title>工作表.3130</title>
			<path d="M0 232.97 L10.97 232.97" class="st20"/>
		</g>
		<g id="shape3131-481" transform="translate(169.584,-214.057)">
			<title>工作表.3131</title>
			<path d="M3.47 232.97 L3.83 232.97 L14.8 232.97" class="st16"/>
		</g>
		<g id="shape3132-486" transform="translate(169.584,-177.207)">
			<title>工作表.3132</title>
			<path d="M3.47 232.97 L3.83 232.97 L14.8 232.97" class="st6"/>
		</g>
		<g id="shape3133-491" transform="translate(169.584,-181.459)">
			<title>工作表.3133</title>
			<path d="M6.1 232.97 L6.46 232.97 L14.8 232.97" class="st19"/>
		</g>
		<g id="shape3134-496" transform="translate(169.584,-185.711)">
			<title>工作表.3134</title>
			<path d="M3.47 232.97 L3.83 232.97 L14.8 232.97" class="st16"/>
		</g>
		<g id="shape3135-501" transform="translate(169.584,-148.86)">
			<title>工作表.3135</title>
			<path d="M3.47 232.97 L3.83 232.97 L14.8 232.97" class="st6"/>
		</g>
		<g id="shape3136-506" transform="translate(169.584,-153.112)">
			<title>工作表.3136</title>
			<path d="M3.47 232.97 L3.83 232.97 L14.8 232.97" class="st17"/>
		</g>
		<g id="shape3137-511" transform="translate(169.584,-157.364)">
			<title>工作表.3137</title>
			<path d="M3.47 232.97 L3.83 232.97 L14.8 232.97" class="st16"/>
		</g>
		<g id="shape3138-516" transform="translate(141.238,-205.553)">
			<title>工作表.3138</title>
			<path d="M3.47 232.97 L3.83 232.97 L14.8 232.97" class="st6"/>
		</g>
		<g id="shape3139-521" transform="translate(141.238,-209.805)">
			<title>工作表.3139</title>
			<path d="M3.47 232.97 L3.83 232.97 L14.8 232.97" class="st17"/>
		</g>
		<g id="shape3140-526" transform="translate(141.238,-214.057)">
			<title>工作表.3140</title>
			<path d="M3.47 232.97 L3.83 232.97 L14.8 232.97" class="st16"/>
		</g>
		<g id="shape3141-531" transform="translate(141.238,-177.207)">
			<title>工作表.3141</title>
			<path d="M3.47 232.97 L3.83 232.97 L14.8 232.97" class="st6"/>
		</g>
		<g id="shape3142-536" transform="translate(141.238,-181.459)">
			<title>工作表.3142</title>
			<path d="M3.47 232.97 L3.83 232.97 L14.8 232.97" class="st17"/>
		</g>
		<g id="shape3143-541" transform="translate(141.238,-185.711)">
			<title>工作表.3143</title>
			<path d="M3.47 232.97 L3.83 232.97 L14.8 232.97" class="st16"/>
		</g>
		<g id="shape3144-546" transform="translate(112.891,-205.553)">
			<title>工作表.3144</title>
			<path d="M0 232.97 L8.34 232.97" class="st21"/>
		</g>
		<g id="shape3145-552" transform="translate(112.891,-209.805)">
			<title>工作表.3145</title>
			<path d="M3.47 232.97 L3.83 232.97 L14.8 232.97" class="st17"/>
		</g>
		<g id="shape3146-557" transform="translate(112.891,-214.057)">
			<title>工作表.3146</title>
			<path d="M0 232.97 L10.97 232.97" class="st14"/>
		</g>
		<g id="shape3151-562" transform="translate(88.6177,-99.5562)">
			<title>工作表.3151</title>
			<desc>Type = SRAM</desc>
			<rect x="0" y="210.999" width="121.202" height="21.9685" class="st4"/>
			<text x="4" y="224.98" class="st5">Type = SRAM</text>		</g>
		<g id="group3159-565" transform="translate(95.2439,-47.6559)">
			<title>工作表.3159</title>
			<g id="shape3160-566" transform="translate(0,-27.6984)">
				<title>工作表.3160</title>
				<path d="M0 232.97 L30.31 232.97" class="st22"/>
			</g>
			<g id="shape3161-572" transform="translate(0,-37.896)">
				<title>工作表.3161</title>
				<path d="M0 232.97 L30.31 232.97" class="st24"/>
			</g>
			<g id="shape3162-578" transform="translate(2.95763E-13,-48.0937)">
				<title>工作表.3162</title>
				<path d="M0 232.97 L30.31 232.97" class="st26"/>
			</g>
			<g id="shape3163-584" transform="translate(37.4916,5.68434E-14)">
				<title>工作表.3163</title>
				<desc>Area Down Power Down Latency Down Same Trend Different Trend</desc>
				<rect x="0" y="179.204" width="102.822" height="53.763" class="st4"/>
				<text x="4" y="185.09" class="st28">Area Down <tspan x="4" dy="1em" class="st29">Power Down </tspan><tspan x="4"
							dy="1em" class="st30">Latency Down </tspan><tspan x="4" dy="1em" class="st31">Same Trend </tspan><tspan
							x="4" dy="1em" class="st31">Different Trend</tspan></text>			</g>
			<g id="shape3164-591" transform="translate(2.95763E-13,-17.5007)">
				<title>工作表.3164</title>
				<path d="M0 232.97 L31.62 232.97" class="st32"/>
			</g>
			<g id="shape3165-597" transform="translate(2.95763E-13,-7.30298)">
				<title>工作表.3165</title>
				<path d="M0 232.97 L29 232.97" class="st34"/>
			</g>
		</g>
		<g id="shape3166-603" transform="translate(-72.009,59.931) rotate(-45)">
			<title>工作表.3166</title>
			<desc>(1,1)</desc>
			<rect x="0" y="223.046" width="39.685" height="9.92126" class="st4"/>
			<text x="7.51" y="231.01" class="st5">(1,1)</text>		</g>
		<g id="shape3167-606" transform="translate(-43.946,59.931) rotate(-45)">
			<title>工作表.3167</title>
			<desc>(2,2)</desc>
			<rect x="0" y="223.046" width="39.685" height="9.92126" class="st4"/>
			<text x="7.51" y="231.01" class="st5">(2,2)</text>		</g>
		<g id="shape3168-609" transform="translate(-15.883,59.931) rotate(-45)">
			<title>工作表.3168</title>
			<desc>(4,4)</desc>
			<rect x="0" y="223.046" width="39.685" height="9.92126" class="st4"/>
			<text x="7.51" y="231.01" class="st5">(4,4)</text>		</g>
		<g id="shape3169-612" transform="translate(11.0461,59.6699) rotate(-45)">
			<title>工作表.3169</title>
			<desc>(8,8)</desc>
			<rect x="0" y="223.046" width="39.685" height="9.92126" class="st4"/>
			<text x="7.51" y="231.01" class="st5">(8,8)</text>		</g>
		<g id="shape3170-615" transform="translate(32.844,67.4845) rotate(-45)">
			<title>工作表.3170</title>
			<desc>(16,16)</desc>
			<rect x="0" y="223.046" width="46.9207" height="9.92126" class="st4"/>
			<text x="4.45" y="231.01" class="st5">(16,16)</text>		</g>
		<g id="shape3171-618" transform="translate(60.907,66.9176) rotate(-45)">
			<title>工作表.3171</title>
			<desc>(32,32)</desc>
			<rect x="0" y="223.046" width="46.0704" height="9.92126" class="st4"/>
			<text x="4.05" y="231.01" class="st5">(32,32)</text>		</g>
	</g>
</svg>
